<?xml version="1.0" encoding="UTF-8"?>
<!DOCTYPE svg PUBLIC "-//W3C//DTD SVG 1.1//EN" "http://www.w3.org/Graphics/SVG/1.1/DTD/svg11.dtd">
<!-- Creator: CorelDRAW 2021.5 -->
<svg xmlns="http://www.w3.org/2000/svg" xml:space="preserve" width="756px" height="756px" version="1.1" style="shape-rendering:geometricPrecision; text-rendering:geometricPrecision; image-rendering:optimizeQuality; fill-rule:evenodd; clip-rule:evenodd"
viewBox="0 0 756 756"
 xmlns:xlink="http://www.w3.org/1999/xlink"
 xmlns:xodm="http://www.corel.com/coreldraw/odm/2003">
 <defs>
  <style type="text/css">
   <![CDATA[
    .fil0 {fill:#FEFEFE}
    .fil1 {fill:#764ABC;fill-rule:nonzero}
   ]]>
  </style>
 </defs>
 <g id="Слой_x0020_1">
  <metadata id="CorelCorpID_0Corel-Layer"/>
  <circle class="fil0" cx="377.95" cy="378.05" r="378"/>
  <path class="fil1" d="M506.02 457.58c24.5,-2.54 43.08,-23.66 42.24,-49 -0.85,-25.35 -21.97,-45.63 -47.31,-45.63l-1.69 0c-26.19,0.85 -46.47,22.81 -45.62,49.01 0.84,12.67 5.91,23.65 13.51,31.26 -28.72,56.6 -72.65,98 -138.55,132.64 -44.78,23.66 -91.24,32.11 -137.71,26.2 -38.02,-5.08 -67.59,-21.97 -86.18,-49.85 -27.03,-41.4 -29.56,-86.18 -6.75,-130.96 16.05,-32.11 41.39,-55.76 57.45,-67.59 -3.38,-10.98 -8.45,-29.57 -10.99,-43.09 -122.5,88.71 -109.83,208.69 -72.65,265.29 27.87,42.25 84.48,68.44 147,68.44 16.9,0 33.79,-1.69 50.69,-5.91 108.14,-21.13 190.09,-85.34 236.56,-180.81zm148.69 -104.76c-64.21,-75.2 -158.83,-116.6 -266.97,-116.6l-13.52 0c-7.6,-15.2 -23.66,-25.35 -41.4,-25.35l-1.69 0c-26.19,0.85 -46.46,22.82 -45.62,49.01 0.85,25.34 21.97,45.62 47.31,45.62l1.69 0c18.59,-0.84 34.64,-12.67 41.4,-28.72l15.21 0c64.21,0 125.03,18.58 179.95,54.91 42.24,27.88 72.66,64.22 89.55,108.15 14.37,35.48 13.52,70.12 -1.69,99.69 -23.65,44.78 -63.36,69.28 -115.74,69.28 -33.79,0 -65.9,-10.14 -82.8,-17.74 -9.29,8.45 -26.19,21.97 -38.02,30.42 36.34,16.89 73.51,26.19 108.99,26.19 81.11,0 141.09,-44.78 163.9,-89.56 24.5,-49 22.81,-133.49 -40.55,-205.3l0 0zm-429.18 119.12c0.84,25.35 21.96,45.62 47.31,45.62l1.69 0c26.19,-0.84 46.47,-22.81 45.62,-49 -0.84,-25.35 -21.97,-45.62 -47.31,-45.62l-1.69 0c-1.69,0 -4.23,0 -5.91,0.84 -34.64,-57.45 -49.01,-119.97 -43.94,-187.56 3.38,-50.69 20.28,-94.63 49.85,-130.96 24.5,-31.26 71.81,-46.47 103.92,-47.31 89.55,-1.69 127.57,109.83 130.1,154.61 10.99,2.54 29.57,8.45 42.25,12.68 -10.14,-136.87 -94.63,-207.84 -175.73,-207.84 -76.04,0 -146.16,54.91 -174.04,136.02 -38.87,108.15 -13.52,212.07 33.79,294.02 -4.22,5.91 -6.76,15.21 -5.91,24.5l0 0z"/>
 </g>
</svg>
